<?xml version="1.0" encoding="iso-8859-1"?>
<!-- Generator: Adobe Illustrator 16.0.0, SVG Export Plug-In . SVG Version: 6.00 Build 0)  -->
<!DOCTYPE svg PUBLIC "-//W3C//DTD SVG 1.1//EN" "http://www.w3.org/Graphics/SVG/1.1/DTD/svg11.dtd">
<svg xmlns="http://www.w3.org/2000/svg" xmlns:xlink="http://www.w3.org/1999/xlink" version="1.1" id="Capa_1" x="0px" y="0px" width="512px" height="512px" viewBox="0 0 279.581 279.581" style="enable-background:new 0 0 279.581 279.581;" xml:space="preserve">
<g>
	<g>
		<path d="M54.877,190.65c8.873,14.785,21.506,27.05,36.527,35.488c1.108,0.616,2.315,0.915,3.503,0.915    c0.91,0,1.783-0.229,2.625-0.561c11.47,5.619,24.192,8.998,37.649,9.633c1.314,1.597,3.279,2.623,5.496,2.623    c0.023,0,0.049,0,0.068,0c17.277-0.163,34.256-4.854,49.088-13.562c1.914-1.125,3.085-3.006,3.417-5.031    c10.902-7.28,20.213-16.727,27.391-27.703c2.039-0.346,3.916-1.513,5.026-3.444c8.569-14.911,13.091-31.928,13.091-49.219    c0-2.248-1.055-4.226-2.664-5.54c-2.848-49.765-43.451-89.494-93.58-90.898c-1.367-1.573-3.379-2.567-5.582-2.485    c-17.268,0.492-34.146,5.512-48.824,14.51c-1.902,1.167-3.034,3.083-3.316,5.134c-10.729,7.463-19.823,17.061-26.782,28.147    c-2.061,0.368-3.948,1.596-5.038,3.579c-7.948,14.487-12.148,30.932-12.148,47.553l0.014,1.885c0.04,2.24,1.115,4.2,2.749,5.484    c1.022,13.417,4.751,26.074,10.716,37.411C53.613,186.524,53.732,188.741,54.877,190.65z M53.116,146.579    c1.295-1.32,2.093-3.141,2.058-5.139l-0.014-1.657c0-14.223,3.589-28.278,10.386-40.657c0.955-1.738,1.109-3.703,0.593-5.472    c6.24-9.929,14.389-18.523,23.984-25.228c0.564,0.142,1.148,0.219,1.736,0.219c1.281,0,2.576-0.338,3.741-1.055    c12.541-7.696,26.969-11.982,41.738-12.402c2.002-0.056,3.785-0.931,5.05-2.294c45.065,1.342,81.553,37.052,84.166,81.795    c-1.316,1.3-2.133,3.097-2.133,5.094c0,14.791-3.869,29.342-11.187,42.079c-0.999,1.74-1.182,3.72-0.682,5.507    c-6.422,9.782-14.729,18.216-24.446,24.731c-1.802-0.495-3.799-0.299-5.535,0.719c-12.676,7.443-27.19,11.453-41.962,11.588    c-1.993,0.019-3.79,0.85-5.068,2.18c-12.053-0.588-23.438-3.612-33.722-8.634c-0.497-1.774-1.669-3.352-3.398-4.331    c-12.851-7.216-23.657-17.712-31.25-30.359c-1.039-1.723-2.677-2.843-4.483-3.271C57.389,169.863,54.052,158.56,53.116,146.579z" fill="#FFFFFF"/>
		<path d="M139.793,201.763c34.172,0,61.979-27.802,61.979-61.974c0-34.177-27.802-61.977-61.979-61.977v-4.333    c-36.623,0-66.31,29.688-66.31,66.31h4.335C77.818,173.961,105.618,201.763,139.793,201.763z M117.141,139.789    c0,12.512,10.142,22.654,22.652,22.654c5.913,0,11.247-2.314,15.284-6.021l11.972,11.967c7.672-7.673,11.388-17.796,11.191-27.854    c0.196-10.058-3.52-20.173-11.191-27.849l-11.169,11.164c-4.103-4.145-9.791-6.721-16.087-6.721v-24.98    c26.266,0,47.642,21.373,47.642,47.639s-21.376,47.637-47.642,47.637c-26.267,0-47.637-21.371-47.637-47.637H117.141z" fill="#FFFFFF"/>
		<path d="M214.466,139.789c0,41.173-33.5,74.673-74.673,74.673v4.779c43.81,0,79.452-35.643,79.452-79.453    s-35.643-79.453-79.452-79.453v4.779C180.966,65.115,214.466,98.611,214.466,139.789z" fill="#FFFFFF"/>
		<path d="M136.071,260.367l-13.009,18.174c2.338,0.284,4.688,0.504,7.063,0.667c0.119-0.64,0.319-1.265,0.688-1.773l12.206-17.049    c-1.075,0.028-2.142,0.079-3.227,0.079C138.547,260.46,137.308,260.404,136.071,260.367z" fill="#FFFFFF"/>
		<path d="M168.972,256.876l-15.775,22.048c2.604-0.253,5.199-0.556,7.757-0.943c0.098-0.182,0.141-0.383,0.262-0.546l16.545-23.125    C174.88,255.266,171.949,256.13,168.972,256.876z" fill="#FFFFFF"/>
		<path d="M139.793,0C62.711,0,0.004,62.712,0.004,139.789c0,42.358,18.965,80.339,48.815,105.999    c0.597,0.107,1.183,0.388,1.657,0.994c0.187,0.238,0.292,0.532,0.42,0.808c2.109,1.74,4.282,3.397,6.487,5.012l4.077-5.698    c1.146-1.577,3.034-1.638,4.214-0.126c1.19,1.521,1.228,4.042,0.096,5.629l-2.882,4.032c1.573,1.041,3.155,2.062,4.774,3.043    l8.998-12.578c1.148-1.577,3.031-1.638,4.217-0.126c1.183,1.521,1.228,4.042,0.096,5.629l-7.46,10.422    c1.675,0.9,3.372,1.769,5.085,2.608l11.315-15.812c-41.716-19.023-70.792-61.083-70.792-109.84    c0-66.541,54.134-120.672,120.672-120.672c66.543,0,120.672,54.131,120.672,120.672c0,49.374-29.813,91.89-72.377,110.554    c-0.103,0.751-0.304,1.479-0.724,2.067l-17.002,23.76c2.875-0.648,5.722-1.381,8.531-2.198l19.359-27.069    c1.147-1.577,3.033-1.643,4.219-0.125c1.186,1.521,1.228,4.046,0.093,5.633l-12.815,17.902c3.402-1.307,6.749-2.726,10.016-4.284    l13.688-19.126c1.148-1.577,3.024-1.643,4.215-0.125c1.186,1.521,1.231,4.046,0.093,5.633l-4.424,6.179    c4.933-3.062,9.651-6.427,14.15-10.058l1.167-1.629c0.597-0.83,1.399-1.213,2.202-1.194c29.8-25.659,48.72-63.612,48.72-105.924    C279.581,62.712,216.874,0,139.793,0z" fill="#FFFFFF"/>
		<path d="M90.205,270.457l11.574-16.166c-1.871-0.621-3.722-1.288-5.551-2.003c-0.026,0.038-0.03,0.089-0.059,0.117l-11.364,15.877    C86.583,269.053,88.39,269.767,90.205,270.457z" fill="#FFFFFF"/>
		<path d="M96.79,272.781c1.893,0.611,3.806,1.177,5.731,1.708l11.966-16.717c-1.998-0.43-3.972-0.91-5.929-1.438L96.79,272.781z" fill="#FFFFFF"/>
		<path d="M145.3,279.437c0.103-0.728,0.299-1.428,0.71-2.002l13.291-18.57c-2.529,0.415-5.087,0.756-7.682,1.013l-14.057,19.644    c0.74,0.01,1.482,0.061,2.226,0.061C141.644,279.577,143.471,279.512,145.3,279.437z" fill="#FFFFFF"/>
		<path d="M109.518,276.235c2.016,0.448,4.053,0.85,6.093,1.199c0.005,0,0.005-0.005,0.005-0.005l12.552-17.543    c-2.146-0.206-4.284-0.462-6.396-0.779L109.518,276.235z" fill="#FFFFFF"/>
	</g>
</g>
<g>
</g>
<g>
</g>
<g>
</g>
<g>
</g>
<g>
</g>
<g>
</g>
<g>
</g>
<g>
</g>
<g>
</g>
<g>
</g>
<g>
</g>
<g>
</g>
<g>
</g>
<g>
</g>
<g>
</g>
</svg>
